<?xml version="1.0" encoding="UTF-8"?>
<svg id="Layer_2" data-name="Layer 2" xmlns="http://www.w3.org/2000/svg" viewBox="0 0 130.21 16.26">
  <defs>
    <style>
      .cls-1 {
        fill: #0001f8;
      }
    </style>
  </defs>
  <g id="Layer_1-2" data-name="Layer 1">
    <g>
      <path class="cls-1" d="M14.32,5.94c0-.66-.42-1.45-1.02-1.88-.62-.46-1.69-.74-2.86-.74-1.59,0-2.71,.37-4.19,1.32l.34-1.1H2.76S0,12.67,0,12.67H4.19s1.07-3.5,1.07-3.5l.08-.26,.1-.26,.05-.26c.18-.5,.36-1.01,.55-1.31,.6-.88,1.41-1.31,2.66-1.31,.76,0,1.3,.33,1.3,.83,0,.31-.1,.79-.29,1.44l-1.35,4.62h4.22s1.35-4.62,1.35-4.62c.29-.81,.39-1.62,.39-2.12Z"/>
      <path class="cls-1" d="M20.02,9.51l-.52-5.96h-4.3s1.38,7.56,1.38,7.56l.16,.85c.08,.61,.1,.75,.1,.96,0,.66-.57,1.07-1.59,1.07-.31,0-.52-.02-1.02-.09l-.42,2.15c.73,.13,1.2,.18,1.82,.18,2.29,0,3.2-.5,4.95-2.67,.13-.13,.34-.4,.63-.75l.62-.77L28.64,3.55h-4.61s-4.01,5.96-4.01,5.96Z"/>
      <polygon class="cls-1" points="38.72 .4 34.5 .4 33.85 2.65 38.07 2.65 38.72 .4"/>
      <polygon class="cls-1" points="33.59 3.55 30.83 12.67 35.04 12.67 37.8 3.55 33.59 3.55"/>
      <path class="cls-1" d="M54.08,3.31c-1.64,0-2.81,.44-4.19,1.6-.55-1.03-1.77-1.6-3.44-1.6-1.54,0-2.63,.37-3.96,1.34l.31-1.1h-3.78s-2.76,9.13-2.76,9.13h4.22s1.51-5.02,1.51-5.02c.39-1.2,1.3-1.88,2.58-1.88,.76,0,1.12,.28,1.12,.81,0,.33-.05,.55-.34,1.44l-.13,.4-1.28,4.25h4.22s1.54-5.02,1.54-5.02c.34-1.2,1.3-1.88,2.66-1.88,.73,0,1.09,.24,1.09,.74,0,.2-.05,.5-.18,.85-.05,.11-.08,.18-.08,.2l-1.54,5.11h4.22s1.59-5.21,1.59-5.21c.29-.94,.31-1.12,.31-1.64,0-1.45-1.61-2.52-3.7-2.52Z"/>
      <path class="cls-1" d="M70.74,5.94c0-.81-.65-1.6-1.69-2.06-1.04-.5-1.98-.63-3.96-.63-3.38,0-5.36,1.01-5.94,3.04h4.04c.23-.61,.83-.92,1.8-.92,1.12,0,1.72,.28,1.72,.85,0,.5-.49,.7-1.64,.75-2.84,.09-2.11,.09-2.45,.09-.94,.06-1.74,.18-2.45,.39-1.56,.46-2.47,1.49-2.47,2.82,0,1.71,1.46,2.65,4.19,2.65,1.48,0,2.29-.22,3.59-1.09l.08,.85h4.14c-.18-.46-.26-.66-.26-.94,0-.35,.08-.85,.29-1.43l.31-1.16,.31-1.14c.23-.83,.39-1.55,.39-2.06Zm-7.29,4.97c-1.02,0-1.54-.31-1.54-.92,0-.35,.18-.63,.52-.83,.39-.24,.88-.35,2.34-.48,.73-.07,1.02-.09,1.43-.22-.49,1.84-1.2,2.45-2.76,2.45Z"/>
      <path class="cls-1" d="M81.7,3.55l-.44,1.45c-1.04-1.29-1.95-1.71-3.85-1.71-1.54,0-2.79,.37-3.8,1.1-1.56,1.12-2.45,2.76-2.45,4.45,0,2.34,1.82,3.81,4.66,3.81,1.46,0,2.45-.35,3.46-1.21l-.39,1.07c-.03,.07-.08,.17-.16,.28-.18,.39-.34,.63-.44,.75-.44,.53-.91,.7-1.95,.7s-1.61-.29-1.87-.9h-4.14c.34,1.95,2.32,2.93,5.94,2.93,2.29,0,4.11-.4,5.16-1.2,.86-.61,1.48-1.66,1.93-3.11l2.58-8.41h-4.22Zm-2.71,6.38c-.39,.35-.94,.51-1.54,.51-1.25,0-1.95-.64-1.95-1.8,0-1.62,1.35-3.04,2.97-3.04,1.12,0,1.9,.63,1.9,1.51,0,1.03-.55,2.13-1.38,2.82Z"/>
      <path class="cls-1" d="M92.72,3.29c-4.17,0-7.26,2.28-7.26,5.43,0,2.59,2.42,4.23,6.25,4.23,3.12,0,5.75-1.25,6.38-3.04h-4.4c-.6,.57-1.28,.86-2.08,.86-.7,0-1.25-.18-1.61-.53-.29-.28-.36-.53-.39-1.25h8.77c.21-.5,.26-.77,.26-1.38,0-2.72-2.24-4.32-5.91-4.32Zm1.8,3.88h-4.58c.44-1.23,1.33-1.84,2.6-1.84s1.98,.59,1.98,1.62v.22Z"/>
      <path class="cls-1" d="M105.84,5.22c1.2,0,1.85,.35,1.98,1.07h4.11c-.18-1.91-2.21-2.98-5.73-2.98-3.88,0-6.25,1.1-6.25,2.96,0,1.31,1.07,1.97,4.45,2.85,2.32,.59,2.53,.7,2.53,1.09,0,.46-.65,.74-1.69,.74-1.38,0-2.13-.42-2.32-1.25h-4.27c.13,2.01,2.53,3.26,6.38,3.26,3.75,0,6.09-1.16,6.09-3.02,0-1.31-1.12-2.08-4.45-2.91l-.47-.13-.49-.13-.47-.11c-.34-.09-.6-.18-.83-.31-.18-.11-.26-.24-.26-.4,0-.44,.65-.72,1.69-.72Z"/>
      <polygon class="cls-1" points="120.05 0 113.2 0 112.8 1.32 115.18 1.32 113.74 6.14 115.99 6.14 117.43 1.32 119.66 1.32 120.05 0"/>
      <polygon class="cls-1" points="127.18 0 124.26 4.38 123.93 0 120.92 0 119.08 6.14 121.35 6.14 122.44 2.48 122.73 6.14 124.81 6.14 127.18 2.59 126.1 6.14 128.35 6.14 130.21 0 127.18 0"/>
    </g>
  </g>
</svg>